# xmcd
#
# Track frame offsets:
#	150
#	30762
#	42975
#	62372
#	104125
#	126150
#	147197
#	157460
#	190700
#	216755
#
# Disc length: 3086 seconds
#
# Revision: 1
# Processed by: cddbd v1.5.2PL0 Copyright (c) Steve Scherf et al.
# Submitted via: MusicManager 7.3.0.0 
#
DISCID=8d0c0c0a
DTITLE=Jeff Beck - 21 Sucessos - Disk 02
DYEAR=1134
DGENRE=Blues
TTITLE0=Going Down
TTITLE1=I Can´t Give Back the Love I Feel For You
TTITLE2=Superstition
TTITLE3=Black Cat Moan
TTITLE4=People Get Ready
TTITLE5=Escape
TTITLE6=Sleep Walk
TTITLE7=Freeway Jam
TTITLE8=The Pump
TTITLE9=Where Were You
EXTD=YEAR: 1999
EXTT0=
EXTT1=
EXTT2=
EXTT3=
EXTT4=
EXTT5=
EXTT6=
EXTT7=
EXTT8=
EXTT9=
PLAYORDER=
